<svg id="Neu_" data-name="Neu " xmlns="http://www.w3.org/2000/svg" width="300" height="138" viewBox="0 0 300 138">
  <metadata><?xpacket begin="﻿" id="W5M0MpCehiHzreSzNTczkc9d"?>
<x:xmpmeta xmlns:x="adobe:ns:meta/" x:xmptk="Adobe XMP Core 5.6-c138 79.159824, 2016/09/14-01:09:01        ">
   <rdf:RDF xmlns:rdf="http://www.w3.org/1999/02/22-rdf-syntax-ns#">
      <rdf:Description rdf:about=""/>
   </rdf:RDF>
</x:xmpmeta>
                                                                                                    
                                                                                                    
                                                                                                    
                                                                                                    
                                                                                                    
                                                                                                    
                                                                                                    
                                                                                                    
                                                                                                    
                                                                                                    
                                                                                                    
                                                                                                    
                                                                                                    
                                                                                                    
                                                                                                    
                                                                                                    
                                                                                                    
                                                                                                    
                                                                                                    
                                                                                                    
                           
<?xpacket end="w"?></metadata>
<defs>
    <style>
      .cls-1 {
        fill: #dd291e;
      }

      .cls-2 {
        fill: #fff;
        fill-rule: evenodd;
      }
    </style>
  </defs>
  <rect id="Rechteck_41_Kopie" data-name="Rechteck 41 Kopie" class="cls-1" width="300" height="138" rx="36" ry="36"/>
  <path id="NEU" class="cls-2" d="M88.331,100.142c1.919,3.4,3.613,5.9,10.5,5.9,7.057,0,8.355-2.672,8.355-6.735V31.675c0-3.451-.677-6.012-7.565-6.012s-7.565,2.561-7.565,6.012V63.96a153.719,153.719,0,0,0,1.016,15.976H92.848a172.426,172.426,0,0,0-7.791-15.864L66.708,31.508c-2.315-4.064-4.121-5.845-10.783-5.845-7.96,0-9.146,2.616-9.146,6.624v67.744c0,3.451.565,6.011,7.565,6.011,6.944,0,7.565-2.56,7.565-6.011V65.853c0-4.787-.4-8.127-1.016-15.976h0.226C64.337,57,66.2,60.954,68.91,65.741Zm85.334,5.566c2.936,0,4.912-.779,4.912-6.958,0-6.234-1.976-6.958-4.912-6.958H143.122V72.087h26.14c2.935,0,4.855-.724,4.855-6.791S172.2,58.5,169.262,58.5h-26.14V39.913h30.092c2.935,0,4.911-.779,4.911-6.958,0-6.234-1.976-6.958-4.911-6.958H133.355c-4.685,0-6.492,1.781-6.492,6.4V99.307c0,4.62,1.807,6.4,6.492,6.4h40.31Zm63.107-30.225c0,14.139-5.42,17.423-13.493,17.423-8.13,0-13.493-3.284-13.493-17.423V31.675c0-3.451-.621-6.012-8.13-6.012s-8.13,2.561-8.13,6.012V77.932c0,20.707,11.066,29.112,29.527,29.112,18.631,0,29.978-8.572,29.978-30.17v-45.2c0-3.451-.621-6.012-8.129-6.012s-8.13,2.561-8.13,6.012V75.483Z"/>
</svg>
